<svg xmlns="http://www.w3.org/2000/svg" xmlns:xlink="http://www.w3.org/1999/xlink" xmlns:inkscape="http://www.inkscape.org/namespaces/inkscape" version="1.1" width="417.0669" height="168.2719" viewBox="0 0 417.0669 168.2719">
<defs>
<clipPath id="clip_1">
<path transform="matrix(1,0,0,-1,0,168.2719)" d="M27.72098 17.72656H397.54078V148.74576H27.72098Z"/>
</clipPath>
<clipPath id="clip_2">
<path transform="matrix(1,0,0,-1,0,168.2719)" d="M36 99.13593H66.63086V129.76679H36Z"/>
</clipPath>
</defs>
<g clip-path="url(#clip_1)">
<text xml:space="preserve" transform="matrix(1 0 -0 1 49.69485 108.40837)" font-size="72" font-family="AAAAAB+Optima-BoldItalic" font-weight="bold" font-style="italic"><tspan y="0" x="0 37.368005 73.368007 93.384 113.40001">Skill</tspan></text>
<text xml:space="preserve" transform="matrix(1 0 -0 1 49.69485 108.40837)" font-size="72" font-family="AAAAAC+Optima-Italic" font-style="italic"><tspan y="0" x="133.416 168.552 204.552 240.552 261.864 301.89604">vector</tspan></text>
</g>
<g clip-path="url(#clip_2)">
<path transform="matrix(1,0,0,-1,0,168.2719)" d="M51.31543 128.7668C51.12501 128.7667 50.95057 128.661 50.86133 128.4928 50.59071 127.9828 50.29798 127.3949 49.98866 126.7728 48.85092 124.4842 47.43296 121.6346 45.78257 119.9842 44.13203 118.3337 41.28302 116.9168 38.99396 115.7781 38.37164 115.4689 37.78423 115.1762 37.27398 114.9055 37.10577 114.8163 36.99992 114.6417 37 114.4514 37.00005 114.2609 37.10577 114.0865 37.27398 113.9973 37.784 113.7266 38.37238 113.4339 38.99396 113.1246 41.28257 111.9869 44.13217 110.5689 45.78257 108.9185 47.43318 107.2679 48.84999 104.419 49.98866 102.1299 50.29786 101.5085 50.59058 100.9202 50.86133 100.4099 50.95044 100.2417 51.125 100.1359 51.31543 100.1359 51.50561 100.136 51.68029 100.2417 51.76952 100.4099 52.04015 100.9199 52.33287 101.5078 52.6422 102.1299 53.77993 104.4185 55.1979 107.2681 56.84829 108.9185 58.49881 110.5699 61.35037 111.9859 63.63943 113.1246 64.26118 113.4338 64.84662 113.7265 65.35688 113.9973 65.52508 114.0864 65.63086 114.2609 65.63086 114.4514 65.6308 114.6418 65.52509 114.8162 65.35688 114.9055 64.84646 115.1761 64.26101 115.4688 63.63943 115.7781 61.34986 116.9167 58.49868 118.3338 56.84829 119.9842 55.19689 121.6347 53.78087 124.4863 52.6422 126.7754 52.333 127.3971 52.04003 127.9826 51.76952 128.4928 51.68042 128.661 51.50586 128.7668 51.31543 128.7668ZM51.31543 128.7668" fill="#5ac4f6"/>
</g>
</svg>
